<?xml version="1.0" encoding="utf-8"?>
<!-- Generator: Adobe Illustrator 26.3.1, SVG Export Plug-In . SVG Version: 6.00 Build 0)  -->
<svg version="1.1" id="Layer_1" xmlns="http://www.w3.org/2000/svg" xmlns:xlink="http://www.w3.org/1999/xlink" x="0px" y="0px"
	 viewBox="0 0 190 190" style="enable-background:new 0 0 190 190;" xml:space="preserve">
<style type="text/css">
	.st0{display:none;}
	.st1{display:inline;opacity:0.4;fill:#FFFFFF;stroke:#000000;stroke-miterlimit:10;enable-background:new    ;}
	.st2{fill:#EAEAEA;}
	.st3{fill:#79DE75;}
	.st4{fill:#4C4C4C;}
</style>
<g id="Layer_4" class="st0">
</g>
<g id="Base_Circle" class="st0">
	<circle class="st1" cx="295.5" cy="55.2" r="77.2"/>
	<circle class="st1" cx="71.5" cy="55.2" r="77.2"/>
</g>
<g id="Instructions_and_Tone">
</g>
<g>
	<g id="Shadow_Layer">
		<circle class="st2" cx="108.6" cy="100.9" r="77.2"/>
	</g>
</g>
<g id="Layer_1_00000024688917951254936150000008386693706061424544_">
	<path class="st3" d="M70.4,143.4c34.9-20.8,73-55.6,105.3-81c-5.1-5.3-10.4-15.1-15.5-20.3c-0.9-0.9-1.9-1.9-3.2-1.9
		c-1.1,0-2.2,0.7-3.1,1.4c-26.1,20.1-51.3,50.1-80.2,66.1c-1.5,0.8-3.2,1.6-4.9,1.2c-1.5-0.4-2.6-1.6-3.6-2.8
		c-4.4-5.3-7.2-11.8-11.5-17.2c-2.2-2.7-3.9-4-5.5-4.4c-2.9-0.7-5.6,1.7-9.9,5.1c-3.7,2.9-7.8,5.2-11.5,8.1
		c10.8,10.2,23.9,29.5,34.7,39.7c1.2,1.2,4.4,6,6.1,6.2"/>
	<path class="st4" d="M88.1,169.3c-43.4,0-78.7-35.3-78.7-78.7s35.3-78.7,78.7-78.7c21,0,40.8,8.2,55.7,23.1c1,1,1,2.5,0,3.5
		s-2.5,1-3.5,0c-13.9-13.9-32.5-21.6-52.2-21.6c-40.7,0-73.8,33.1-73.8,73.8s33.1,73.8,73.8,73.8s73.8-33.1,73.8-73.8
		c0-1.4,1.1-2.4,2.4-2.4s2.4,1.1,2.4,2.4C166.9,134,131.5,169.3,88.1,169.3"/>
</g>
</svg>
