<?xml version="1.0" encoding="utf-8"?>
<!-- Generator: Adobe Illustrator 26.3.1, SVG Export Plug-In . SVG Version: 6.00 Build 0)  -->
<svg version="1.1" id="Layer_1" xmlns="http://www.w3.org/2000/svg" xmlns:xlink="http://www.w3.org/1999/xlink" x="0px" y="0px"
	 viewBox="0 0 181 181" style="enable-background:new 0 0 181 181;" xml:space="preserve">
<style type="text/css">
	.st0{fill:#F56BD6;}
	.st1{fill:#C1C1C1;}
	.st2{display:none;}
	.st3{display:inline;fill:#D1D1D1;}
	.st4{display:inline;opacity:0.4;fill:#FFFFFF;stroke:#000000;stroke-miterlimit:10;enable-background:new    ;}
	.st5{display:inline;opacity:0.4;fill:#FFFFFF;stroke:#000000;stroke-width:1;stroke-miterlimit:9.9998;enable-background:new    ;}
</style>
<g>
	<g>
		<g>
			<path class="st0" d="M156.3,40.2c-0.1-1.2-0.3-2.3-1.1-3.1c-1-1-2.6-1.2-4.2-1.4c-15.5-1.9-31.3-1.4-45.6-1.8
				c-16.4-0.4-31.8-0.1-46.1-0.5c-0.1,0-0.1,0-0.2,0c-0.5,0.1-1,0.2-1.3,0.6c-0.3,0.3-0.4,0.8-0.5,1.2c-2.1,7.5-4.1,14.8-6,22
				C49,65.7,47,74,45.2,82c-3.5,15.5-6.3,30.4-8.4,44.6c-0.1,0.4-0.8,4.6-0.7,4.6c23.5,6.9,50.2,13.4,80.8,19.7c1.9,0.4,4,0.8,5.9,0
				c2.1-0.9,3.1-3.1,3.8-5c6.1-16.3,11.9-33.6,17.5-51.9c2.9-9.5,5.7-19.3,8.5-29.4C154.7,56.9,156.9,47.9,156.3,40.2z M118.1,111.9
				c-1.8,5-3.2,9.9-4.5,14.8c-0.7,2.8-1.6,5.9-3.3,8.4c-0.8,1.2-1.6,2.2-3.2,2.2c-2.2,0-5.1-1.2-7.1-1.8
				c-10.7-2.6-20.8-5.1-30.4-7.5c-4.3-1-8.4-2.1-12.5-3.1c-2.5-0.6-5.1-1-7.4-2c0.5-3.8,1.1-7.2,2.2-11c1.1-3.8,2.4-7.6,3.8-11.5
				c1.2-3.2,3.3-12.1,6.9-13.9c0.8-0.4,1.7-0.3,2.6-0.3c7.4,0.7,15.5,1.8,23.5,3.1C97.6,90.7,109,91,118,94
				C125.1,96.5,120.1,106.3,118.1,111.9z M140.2,47.3c-5.9,12.2-11.8,23.9-17.7,35c-12.7-1.3-24.8-2.6-36.3-3.8
				c-0.2,0-0.5-0.1-0.6-0.4c-0.1-0.4,0.2-1.1,0.4-1.7c2-5.9,4.4-12,6.6-18.2c1.8-4.9,3.6-11.3,6.3-16.5c14-1.1,27.4,0.8,41.4,2.9
				c0.3,0,0.6,0.1,0.6,0.6C141,45.7,140.6,46.5,140.2,47.3z"/>
		</g>
	</g>
	<g>
		<path class="st1" d="M90.8,171.6c-43.7,0-79.2-35.5-79.2-79.2s35.5-79.2,79.2-79.2c13.4,0,26.6,3.4,38.3,9.9
			c1.2,0.7,1.7,2.2,1,3.4c-0.7,1.2-2.2,1.7-3.4,1c-10.9-6-23.3-9.2-35.8-9.2c-40.9,0-74.2,33.3-74.2,74.2s33.3,74.2,74.2,74.2
			S165,133.2,165,92.3c0-8.3-1.4-16.4-4-24.2c-0.5-1.3,0.2-2.7,1.6-3.2c1.3-0.5,2.7,0.2,3.2,1.6c2.8,8.3,4.3,17,4.3,25.8
			C170.1,136,134.5,171.6,90.8,171.6z"/>
	</g>
</g>
<g id="Layer_4" class="st2">
	<circle class="st3" cx="212.8" cy="-887.3" r="77.2"/>
</g>
<g id="Base_Circle" class="st2">
	<circle class="st4" cx="644.8" cy="-898.3" r="77.2"/>
	<circle class="st4" cx="1323.3" cy="-898.3" r="77.2"/>
	<circle class="st4" cx="1541.8" cy="-898.3" r="77.2"/>
	
		<ellipse transform="matrix(0.7071 -0.7071 0.7071 0.7071 956.7172 513.1527)" class="st5" cx="1097.8" cy="-898.3" rx="77.2" ry="77.2"/>
	<circle class="st4" cx="192.8" cy="-897.3" r="77.3"/>
	<circle class="st4" cx="872.3" cy="-903.3" r="77.2"/>
	<circle class="st4" cx="420.8" cy="-898.3" r="77.2"/>
</g>
</svg>
