<?xml version="1.0" encoding="utf-8"?>
<!-- Generator: Adobe Illustrator 26.0.2, SVG Export Plug-In . SVG Version: 6.00 Build 0)  -->
<svg version="1.1" id="Layer_1" xmlns="http://www.w3.org/2000/svg" xmlns:xlink="http://www.w3.org/1999/xlink" x="0px" y="0px"
	 viewBox="0 0 181 181" enable-background="new 0 0 181 181" xml:space="preserve">
<g id="Layer_1_00000003803314844184604990000004478792950898883251_">
	<path fill="#633FDA" d="M53.047,162.023c-0.073-4.641-0.175-9.28-0.224-13.919c-0.025-2.412-0.033-2.551,1.691-4.498
		c2.135-2.41,6.054-1.784,7.993-4.547c2.529-3.598-1.545-9.256-3.95-11.506c-4.265-3.987-6.237-9.886-6.961-15.675
		c-1.152-9.212-1.855-14.596-0.916-23.83c0.229-2.24,0.565-4.545,1.734-6.472c1.432-2.359,3.938-3.859,6.482-4.935
		c3.715-1.572,7.727-2.438,11.761-2.541c8.513-0.219,16.927-3.96,25.412-5.563c1.953-0.369,4.091-0.929,5.185-2.586
		c0.91-1.379,0.848-3.156,0.782-4.806c-0.415-10.637,1.257-28.977,3.473-39.389c0.763-3.583,1.72-7.222,3.818-10.227
		c2.098-3.005,5.567-5.293,9.228-5.058c0.933,0.06,1.869,0.286,2.662,0.778c2.124,1.318,2.706,4.105,2.961,6.589
		c1.557,15.195-2.547,38.098-2.759,53.37c-0.048,3.456,0.107,7.075,1.818,10.081c1.113,1.955,2.812,3.51,4.085,5.366
		c3.736,5.444,3.422,16.191,2.038,22.503c-1.765,8.047-6.579,15.47-13.444,20.09c-2.293,1.544-4.84,2.84-6.57,4.993
		c-1.639,2.039-2.123,7.564-1.762,10.153c0.053,0.378,0.13,0.759,0.311,1.095c1.174,2.198,4.551,0.505,7.003,0.965
		c3.257,0.613,4.089,4.821,4.196,8.129c0.255,7.78,0.24,12.76,0.495,20.541c0.021,0.66,0.03,1.368-0.336,1.918
		c-0.57,0.857-1.768,0.963-2.799,0.983c-7,0.133-14.002,0.266-21.002,0.398c-11.317,0.214-22.753,0.419-33.822-1.939
		c-2.667-0.568-5.521-1.431-7.095-3.654C53.172,166.905,53.085,164.382,53.047,162.023"/>
	<path fill="#C1C1C1" d="M43.456,152.941c-0.528,0-1.062-0.17-1.509-0.521c-19.177-15.021-30.175-37.578-30.175-61.885
		c0-43.347,35.317-78.611,78.728-78.611c2.738,0,5.499,0.142,8.206,0.422c1.344,0.139,2.32,1.341,2.182,2.683
		s-1.336,2.319-2.687,2.18c-2.54-0.264-5.13-0.396-7.701-0.396c-40.711,0-73.832,33.073-73.832,73.724
		c0,22.796,10.315,43.951,28.3,58.039c1.064,0.833,1.249,2.369,0.415,3.431C44.9,152.62,44.182,152.941,43.456,152.941"/>
	<path fill="#C1C1C1" d="M130.323,157.956c-0.823,0-1.627-0.414-2.089-1.166c-0.707-1.15-0.345-2.656,0.807-3.361
		c22.1-13.531,35.292-37.043,35.292-62.894c0-24.529-12.17-47.384-32.554-61.134c-1.121-0.756-1.414-2.275-0.658-3.395
		c0.756-1.117,2.277-1.413,3.398-0.656c21.732,14.661,34.709,39.028,34.709,65.185c0,27.563-14.066,52.634-37.628,67.061
		C131.2,157.839,130.759,157.956,130.323,157.956"/>
</g>
</svg>
