<?xml version="1.0" encoding="utf-8"?>
<!-- Generator: Adobe Illustrator 26.3.1, SVG Export Plug-In . SVG Version: 6.00 Build 0)  -->
<svg version="1.1" id="Layer_1" xmlns="http://www.w3.org/2000/svg" xmlns:xlink="http://www.w3.org/1999/xlink" x="0px" y="0px"
	 viewBox="0 0 181 181" style="enable-background:new 0 0 181 181;" xml:space="preserve">
<style type="text/css">
	.st0{fill:#99C2FD;}
	.st1{fill:#C1C1C1;}
	.st2{display:none;}
	.st3{display:inline;fill:#D1D1D1;}
	.st4{display:inline;opacity:0.4;fill:#FFFFFF;stroke:#000000;stroke-miterlimit:10;enable-background:new    ;}
	.st5{display:inline;opacity:0.4;fill:#FFFFFF;stroke:#000000;stroke-width:1;stroke-miterlimit:9.9998;enable-background:new    ;}
</style>
<g>
	<g>
		<g>
			<g>
				<path class="st0" d="M138.9,23.1c-0.1-1.5-0.4-3-1.2-4.3c-0.8-1.3-2.3-2.2-3.8-2c-0.8,0.1-1.4,0.5-2.1,0.9
					c-11.3,6.6-21.7,14.3-32.4,21.8c-12.7,8.9-25.5,17.7-38.2,26.6c-5.6,3.9-11.4,7.4-16.8,11.5c-2.9,2.2-13.7,9.1-11.9,13.7
					c0.6,1.5,2,2.5,3.3,3.4c2.3,1.5,4.6,3,7,4.3c3.9,2,13.9,4.1,13.2,9.5c-0.9,7.5-2.1,15-2.5,22.6c-0.2,4.2-0.5,12.2,3.7,14.6
					c4.1,2.3,8.9-1.3,12.1-4.8c6.4-7,12.4-14.3,17.9-22c5.7,3,11.5,5.2,17.4,7.7c3.8,1.6,10.4,6.4,14.4,2.2
					c2.7-2.9,2.7-11.5,3.4-15.4c3-15.7,6-31.3,9-47c1.3-6.9,2.7-13.8,4-20.7C136.9,38,139.6,31.2,138.9,23.1z M85.6,98.4
					c-2.1,2.8-8,12-10.7,15.7c-0.9,1.3-6.9,8.2-6.8,8.4c0.2-7.4,0-14.8-0.7-22.2c-0.1-1-0.2-2,0.3-2.8c0.3-0.5,0.7-0.9,1.2-1.2
					c4.3-3.5,3.7-3.5,7.5-7.5c8-8.6,28.8-30.9,29.8-32c1.7-1.8,12.2-13.1,17.3-15.1c-2.7,7-7.4,13.1-11.7,19.1
					c-4.2,5.9-7.9,12.2-12.2,18.1C95,85.4,90.3,91.9,85.6,98.4z"/>
			</g>
		</g>
	</g>
	<g>
		<path class="st1" d="M90.4,171.8c-20.2,0-39.4-7.6-54.2-21.5c-15.5-14.5-24.4-34.2-25-55.3C10.4,73.8,18,53.6,32.5,38.1
			s34.2-24.4,55.3-25c9-0.3,17.9,0.9,26.4,3.6c1.3,0.4,2.1,1.8,1.6,3.2c-0.4,1.3-1.8,2.1-3.2,1.6c-8-2.5-16.3-3.6-24.7-3.4
			c-19.8,0.6-38.2,9-51.8,23.5C22.6,56,15.5,74.9,16.1,94.8s9,38.2,23.5,51.8s33.4,20.7,53.2,20.1c19.8-0.6,38.2-9,51.8-23.5
			s20.7-33.4,20.1-53.2c-0.6-18.4-7.9-35.8-20.6-49c-1-1-0.9-2.6,0.1-3.6s2.6-0.9,3.6,0.1c13.6,14.2,21.4,32.8,22,52.4
			c0.7,21.2-6.9,41.4-21.4,56.8c-14.5,15.5-34.2,24.4-55.3,25C92.1,171.7,91.2,171.8,90.4,171.8z"/>
	</g>
</g>
<g id="Layer_4" class="st2">
	<circle class="st3" cx="212.8" cy="-887.3" r="77.2"/>
</g>
<g id="Base_Circle" class="st2">
	<circle class="st4" cx="644.8" cy="-898.3" r="77.2"/>
	<circle class="st4" cx="1323.3" cy="-898.3" r="77.2"/>
	<circle class="st4" cx="1541.8" cy="-898.3" r="77.2"/>
	
		<ellipse transform="matrix(0.7071 -0.7071 0.7071 0.7071 956.7172 513.1527)" class="st5" cx="1097.8" cy="-898.3" rx="77.2" ry="77.2"/>
	<circle class="st4" cx="192.8" cy="-897.3" r="77.3"/>
	<circle class="st4" cx="872.3" cy="-903.3" r="77.2"/>
	<circle class="st4" cx="420.8" cy="-898.3" r="77.2"/>
</g>
</svg>
