<?xml version="1.0" encoding="utf-8"?>
<!-- Generator: Adobe Illustrator 26.3.1, SVG Export Plug-In . SVG Version: 6.00 Build 0)  -->
<svg version="1.1" id="Layer_1" xmlns="http://www.w3.org/2000/svg" xmlns:xlink="http://www.w3.org/1999/xlink" x="0px" y="0px"
	 viewBox="0 0 181 181" style="enable-background:new 0 0 181 181;" xml:space="preserve">
<style type="text/css">
	.st0{fill:#FFE149;}
	.st1{fill:#C1C1C1;}
	.st2{display:none;}
	.st3{display:inline;fill:#D1D1D1;}
	.st4{display:inline;opacity:0.4;fill:#FFFFFF;stroke:#000000;stroke-miterlimit:10;enable-background:new    ;}
	.st5{display:inline;opacity:0.4;fill:#FFFFFF;stroke:#000000;stroke-width:1;stroke-miterlimit:9.9999;enable-background:new    ;}
</style>
<g>
	<g>
		<path class="st0" d="M76.5,154.6c-5.1,1.8-9.5,8.3-8.5,14.9c1.5,9.9,11.4,12,17.9,9.9c7.2-2.3,11.8-14.3,5.5-21.4
			C87.6,153.8,81,153,76.5,154.6"/>
	</g>
	<g>
		<path class="st0" d="M65.5,70.3c1.9,0.4,4,0.5,6.1,0.5c7.1,0,11.9-0.9,12.7-8.5c0.7-6.4-3.2-13.8,2.9-18.5c5-3.9,15-1.8,19.3,2.4
			c8.3,8.1,2.7,22.9-6.7,27.1c-8.1,3.7-17.6,8.9-21.6,17.3c-2.6,5.5-5,12.3-5.7,18.4c-2.1,18.3,0.6,27.6,11,27.6
			c15.3,0,11.9-28.5,24.1-34.8C128.6,91,139.1,80.4,136,52c-2.1-19.1-13.9-37.1-35-38c-9.2-0.4-25.6,4.7-35.2,17.7
			c-3.9,5.3-8.1,13-8.3,19.8c-0.1,5.2-0.9,13,3.5,16.7C62.3,69.3,63.9,69.9,65.5,70.3z"/>
	</g>
	<g>
		<path class="st1" d="M59.3,165.3c-0.3,0-0.5-0.1-0.8-0.2c-31.1-13.6-50.3-45.5-47.6-79.4c2.6-32.8,25.6-61.1,57.2-70.3
			c1.3-0.4,2.7,0.4,3.1,1.7c0.4,1.3-0.4,2.7-1.7,3.1c-29.7,8.6-51.2,35.1-53.7,65.9c-2.5,31.8,15.4,61.7,44.6,74.4
			c1.3,0.5,1.8,2,1.3,3.3C61.3,164.8,60.3,165.4,59.3,165.3"/>
	</g>
	<g>
		<path class="st1" d="M103.3,170.6c-1.1-0.1-2-0.9-2.2-2.1c-0.2-1.3,0.7-2.6,2-2.9c33.7-5.8,59.1-33.6,61.8-67.8
			c2-25.4-8.9-49.7-29.1-65.3c-1.1-0.8-1.3-2.4-0.5-3.5s2.4-1.3,3.5-0.5c21.5,16.5,33.1,42.5,31,69.6c-2.9,36.4-30,66.1-65.9,72.3
			C103.7,170.6,103.5,170.6,103.3,170.6"/>
	</g>
</g>
<g id="Layer_4" class="st2">
	<circle class="st3" cx="212.8" cy="-887.3" r="77.2"/>
</g>
<g id="Base_Circle" class="st2">
	<circle class="st4" cx="644.8" cy="-898.3" r="77.2"/>
	<circle class="st4" cx="1323.3" cy="-898.3" r="77.2"/>
	<circle class="st4" cx="1541.8" cy="-898.3" r="77.2"/>
	
		<ellipse transform="matrix(0.7071 -0.7071 0.7071 0.7071 956.7222 513.1589)" class="st5" cx="1097.8" cy="-898.3" rx="77.2" ry="77.2"/>
	<circle class="st4" cx="192.8" cy="-897.3" r="77.3"/>
	<circle class="st4" cx="872.3" cy="-903.3" r="77.2"/>
	<circle class="st4" cx="420.8" cy="-898.3" r="77.2"/>
</g>
</svg>
