<?xml version="1.0" encoding="utf-8"?>
<!-- Generator: Adobe Illustrator 26.3.1, SVG Export Plug-In . SVG Version: 6.00 Build 0)  -->
<svg version="1.1" id="Layer_1" xmlns="http://www.w3.org/2000/svg" xmlns:xlink="http://www.w3.org/1999/xlink" x="0px" y="0px"
	 viewBox="0 0 181 181" style="enable-background:new 0 0 181 181;" xml:space="preserve">
<style type="text/css">
	.st0{fill:#C1C1C1;}
	.st1{fill:#633FDA;}
	.st2{display:none;}
	.st3{display:inline;fill:#D1D1D1;}
	.st4{display:inline;opacity:0.4;fill:#FFFFFF;stroke:#000000;stroke-miterlimit:10;enable-background:new    ;}
	.st5{display:inline;opacity:0.4;fill:#FFFFFF;stroke:#000000;stroke-width:1;stroke-miterlimit:9.9998;enable-background:new    ;}
</style>
<g>
	<g>
		<path class="st0" d="M90.5,171.8c-44,0-79.7-35.8-79.7-79.7c0-44,35.8-79.7,79.7-79.7c10.8,0,21.3,2.1,31.2,6.4
			c1.3,0.5,1.9,2,1.3,3.3c-0.5,1.3-2,1.9-3.3,1.3c-9.3-3.9-19.1-5.9-29.2-5.9c-41.2,0-74.7,33.5-74.7,74.7s33.5,74.7,74.7,74.7
			s74.7-33.5,74.7-74.7c0-12.4-3.1-24.7-9-35.6c-0.7-1.2-0.2-2.8,1-3.4c1.2-0.7,2.8-0.2,3.4,1c6.3,11.6,9.6,24.7,9.6,38
			C170.2,136,134.4,171.8,90.5,171.8z"/>
	</g>
	<g>
		<g>
			<path class="st1" d="M113.7,48.6c-1.5-0.5-2.9-1.4-4.3-2.2c-5.6-3-12.4-3.3-18.6-1.9c-7.5,1.7-14.5,5.7-19.8,11.4
				c-0.3,0.3-0.6,0.6-0.5,1c0,0.4,0.3,0.7,0.6,0.9c3.1,2.6,6.3,5.2,9.5,7.7c0.4,0.3,0.8,0.6,1.3,0.6s0.8-0.4,1.2-0.7
				c7-6.4,18.3-7.2,26.2-2c5.4,3.5,8.6,9.2,9.6,15.5c0.9,5.5-2,12.1-8,13.1c1.6,3.9,5.3,7.5,7.8,10.9c2.1,2.7,12.1-10.3,13.2-12.4
				c4-7.4,3.7-16.8-1.2-23.8c-1.7-2.4-4.8-4.6-3.5-7.8c1-2.5,4-4,6-5.6c3.2-2.6,6.5-5.1,9.8-7.5c6.7-4.9,13.5-9.5,20.6-13.7
				c1.1-0.6,2.3-1.4,2.4-2.7c0.1-0.5-0.1-1.1-0.2-1.6c-1.4-5.1-4.4-10.2-8.7-13.6c-2.5-2.5-8.5-7.5-12.3-5.1c-1.6,1-3.5,3.9-4.8,5.3
				c-1.9,2.1-3.4,4.6-4.8,7c-5,8.4-9.3,17.4-15.4,25c-0.7,0.8-1.4,1.7-2.4,2.1C116.4,49.2,115,49.1,113.7,48.6z"/>
		</g>
		<g>
			<path class="st1" d="M114.9,105.6c-4-0.9-8.1-1.6-12.3-2.2c-0.5-1.4-1.1-2.8-1.8-4.1c-0.7-1.3-1.5-2.5-2.4-3.6
				c4.3-6.6,7.4-11.7,8.1-13.3c-4.7-3-9.4-6-14.1-9c-0.3-0.2-0.7-0.4-1.1-0.4c-0.5,0-0.9,0.4-1.2,0.8c-3.2,3.7-6.2,7.6-9,11.7
				c-1.3-0.2-2.6-0.3-3.9-0.3c-3.4-7.9-6.1-13.8-7.1-15.3c-5.1,2.3-10.2,4.5-15.3,6.8c-0.4,0.2-0.8,0.4-1,0.7c-0.2,0.4-0.1,1,0,1.4
				c1.3,4.6,2.9,9.2,4.6,13.7c-2,1.8-3.6,3.9-4.9,6.1c-8.2-0.9-16.2-2-16.3-2.8c0.2,6.6,0.4,13.3,0.6,19.9c0,0.4,5,1.2,12.4,2.2
				c0.5,2.6,1.5,5.2,2.8,7.6c0.2,0.4,0.5,0.7,0.7,1.1c-4.2,6.1-8.1,11.5-8.8,11.2c6,2.9,11.9,5.9,17.9,8.8c0.3,0.1,2.8-3,6.4-8.1
				c2.9,0.9,5.9,1.2,9,1.1c2.5,6.3,4.5,11.8,3.9,12.2c5.7-3.3,11.5-6.7,17.2-10c0.3-0.2-1-4.1-3.2-10c2.5-2.4,4.4-5.3,5.7-8.3
				c6.7,0.6,11.7,0.9,13.2,0.7c0.4-5.6,0.9-11.1,1.3-16.7c0-0.4,0.1-0.8-0.2-1.2C115.9,105.9,115.4,105.7,114.9,105.6z M84.3,120.1
				c-2,1.5-4.5,2.3-7,2.8c-1.2,0.3-2.4,0.5-3.7,0.5c-2.4-0.1-4.6-1.3-6.2-3s-2.7-3.8-3.6-6.1c-4.4-11.8,15.7-18.2,21.7-8.4
				c0.8,1.3,1.3,2.7,1.7,4.2c0.4,1.2,0.7,2.4,0.7,3.6C87.9,116.3,86.3,118.7,84.3,120.1z"/>
		</g>
	</g>
</g>
<g id="Layer_4" class="st2">
	<circle class="st3" cx="212.8" cy="-887.3" r="77.2"/>
</g>
<g id="Base_Circle" class="st2">
	<circle class="st4" cx="644.8" cy="-898.3" r="77.2"/>
	<circle class="st4" cx="1323.3" cy="-898.3" r="77.2"/>
	<circle class="st4" cx="1541.8" cy="-898.3" r="77.2"/>
	
		<ellipse transform="matrix(0.7071 -0.7071 0.7071 0.7071 956.7172 513.1527)" class="st5" cx="1097.8" cy="-898.3" rx="77.2" ry="77.2"/>
	<circle class="st4" cx="192.8" cy="-897.3" r="77.3"/>
	<circle class="st4" cx="872.3" cy="-903.3" r="77.2"/>
	<circle class="st4" cx="420.8" cy="-898.3" r="77.2"/>
</g>
</svg>
