<svg xmlns="http://www.w3.org/2000/svg" xmlns:xlink="http://www.w3.org/1999/xlink"  viewBox="0 0 600 600">
  <defs>
    <clipPath id="clip-Icons_Idle_11_Project">
      <rect width="600" height="600"/>
    </clipPath>
  </defs>
  <g id="Icons_Idle_11_Project" clip-path="url(#clip-Icons_Idle_11_Project)">
    <g id="Icons_Idle_11_Project-2" data-name="Icons_Idle_11_Project" transform="translate(-3.573 -8.465)">
      <g id="Group_32" data-name="Group 32" transform="translate(10.8 22.92)">
        <path id="Path_26" data-name="Path 26" d="M303.573,597.945C141.942,597.945,10.8,466.436,10.8,305.173,10.8,143.542,142.309,12.4,303.573,12.4A285.764,285.764,0,0,1,418.184,35.91a8.893,8.893,0,0,1,4.775,12.122,8.893,8.893,0,0,1-12.122,4.775A275.692,275.692,0,0,0,303.573,31.135c-151.345,0-274.405,123.06-274.405,274.406s123.06,274.405,274.405,274.405S577.978,456.885,577.978,305.54a275.4,275.4,0,0,0-33.061-130.774,9.206,9.206,0,1,1,16.163-8.816,292.79,292.79,0,0,1,35.265,139.59C596.345,466.436,464.836,597.945,303.573,597.945Z" transform="translate(-10.8 -12.4)" fill="#c1c1c1"/>
      </g>
      <g id="Group_35" data-name="Group 35" transform="translate(107.779 8.465)">
        <g id="Group_33" data-name="Group 33" transform="translate(122.253)">
          <path id="Path_27" data-name="Path 27" d="M229.245,155.9c-5.51-1.837-10.653-5.143-15.8-8.082-20.571-11.02-45.551-12.122-68.326-6.98a143.184,143.184,0,0,0-72.734,41.877c-1.1,1.1-2.2,2.2-1.837,3.673a4.222,4.222,0,0,0,2.2,3.306c11.388,9.551,23.143,19.1,34.9,28.285,1.469,1.1,2.939,2.2,4.775,2.2s2.939-1.469,4.408-2.571c25.714-23.51,67.224-26.449,96.244-7.347,19.837,12.857,31.592,33.8,35.265,56.938,3.306,20.2-7.347,44.449-29.387,48.122,5.877,14.326,19.469,27.551,28.653,40.04,7.714,9.918,44.449-37.836,48.489-45.551,14.694-27.183,13.592-61.714-4.408-87.428-6.245-8.816-17.632-16.9-12.857-28.653,3.673-9.184,14.694-14.694,22.041-20.571,11.755-9.551,23.877-18.735,36-27.551,24.612-18,49.591-34.9,75.673-50.326,4.041-2.2,8.449-5.143,8.816-9.918.367-1.837-.367-4.041-.735-5.878-5.143-18.735-16.163-37.469-31.959-49.959-9.184-9.184-31.224-27.551-45.183-18.735-5.878,3.673-12.857,14.326-17.633,19.469-6.979,7.714-12.49,16.9-17.633,25.714-18.367,30.857-34.163,63.918-56.571,91.836-2.571,2.939-5.143,6.245-8.816,7.714C239.163,158.1,234.02,157.735,229.245,155.9Z" transform="translate(-70.48 -8.465)" fill="#633fda"/>
        </g>
        <g id="Group_34" data-name="Group 34" transform="translate(0 225.677)">
          <path id="Path_28" data-name="Path 28" d="M322.626,201.042c-14.694-3.306-29.755-5.877-45.183-8.082A110.078,110.078,0,0,0,270.83,177.9a82.826,82.826,0,0,0-8.816-13.224c15.8-24.245,27.183-42.979,29.755-48.857l-51.8-33.061a7.7,7.7,0,0,0-4.041-1.469c-1.837,0-3.306,1.469-4.408,2.939a476.018,476.018,0,0,0-33.061,42.979,94.087,94.087,0,0,0-14.326-1.1c-12.49-29.02-22.408-50.693-26.081-56.2-18.735,8.449-37.469,16.53-56.2,24.979a9.376,9.376,0,0,0-3.673,2.571c-.735,1.469-.367,3.673,0,5.143,4.775,16.9,10.653,33.8,16.9,50.326a94.682,94.682,0,0,0-18,22.408c-30.122-3.306-59.51-7.347-59.877-10.286.735,24.245,1.469,48.857,2.2,73.1,0,1.469,18.367,4.408,45.551,8.082A98.538,98.538,0,0,0,95.24,274.143c.735,1.469,1.837,2.571,2.571,4.041-15.428,22.408-29.755,42.244-32.326,41.142C87.526,329.979,109.2,341,131.24,351.652c1.1.367,10.286-11.02,23.51-29.755a99.692,99.692,0,0,0,33.061,4.041c9.184,23.143,16.53,43.347,14.326,44.816,20.939-12.122,42.244-24.612,63.183-36.734,1.1-.735-3.673-15.061-11.755-36.734A94.313,94.313,0,0,0,274.5,266.8c24.612,2.2,42.979,3.306,48.489,2.571,1.469-20.571,3.306-40.775,4.776-61.346,0-1.469.367-2.939-.735-4.408C326.3,202.144,324.463,201.409,322.626,201.042ZM210.219,254.306c-7.347,5.51-16.53,8.449-25.714,10.286a55.146,55.146,0,0,1-13.592,1.837c-8.816-.367-16.9-4.775-22.775-11.02S138.219,241.449,134.913,233c-16.163-43.347,57.673-66.856,79.714-30.857a56.692,56.692,0,0,1,6.245,15.428,42.2,42.2,0,0,1,2.571,13.224C223.443,240.347,217.566,249.164,210.219,254.306Z" transform="translate(-37.2 -69.9)" fill="#633fda"/>
        </g>
      </g>
    </g>
  </g>
</svg>
