<?xml version="1.0" encoding="utf-8"?>
<!-- Generator: Adobe Illustrator 26.0.2, SVG Export Plug-In . SVG Version: 6.00 Build 0)  -->
<svg version="1.1" id="Layer_1" xmlns="http://www.w3.org/2000/svg" xmlns:xlink="http://www.w3.org/1999/xlink" x="0px" y="0px"
	 viewBox="0 0 181 181" enable-background="new 0 0 181 181" xml:space="preserve">
<g id="Layer_1_00000166662539568681666120000002126117923596598178_">
	<path fill="#FFE149" d="M78.028,124.664c1.103,2.366,2.578,4.651,4.698,6.32c2.12,1.668,4.961,2.652,7.613,2.184
		c6.583-1.162,6.582-14.74,7.945-19.781c2.546-9.418,5.092-18.838,7.639-28.255c5.004-18.513,10.009-37.024,15.014-55.536
		c1.17-4.328,2.284-9.146-0.004-13.187c-1.487-2.626-4.176-4.454-6.773-6.17c-6.928-4.578-14.853-9.318-23.04-8.147
		C79.088,3.814,73.79,16.818,71.661,28.043c-3.069,16.185-4.043,32.783-2.961,49.332C69.699,92.653,71.351,110.337,78.028,124.664"
		/>
	<path fill="#FFE149" d="M83.271,153.855c-5.027,1.808-9.329,8.193-8.365,14.74c1.441,9.791,11.276,11.79,17.631,9.798
		c7.148-2.24,11.69-14.103,5.417-21.16C94.247,153.062,87.7,152.262,83.271,153.855"/>
	<path fill="#C1C1C1" d="M65.62,166.734c-0.265,0-0.534-0.043-0.798-0.135c-31.731-10.942-53.049-40.859-53.049-74.443
		c0-32.547,20.446-62.147,50.878-73.66c1.266-0.477,2.678,0.159,3.155,1.423c0.479,1.265-0.158,2.678-1.422,3.156
		C35.844,33.87,16.668,61.633,16.668,92.156c0,31.496,19.993,59.554,49.75,69.815c1.278,0.441,1.956,1.834,1.516,3.112
		C67.584,166.096,66.634,166.734,65.62,166.734"/>
	<path fill="#C1C1C1" d="M109.326,168.542c-1.093,0-2.089-0.738-2.371-1.846c-0.332-1.311,0.46-2.643,1.77-2.975
		c32.741-8.312,55.607-37.74,55.607-71.565c0-25.124-12.601-48.297-33.707-61.988c-1.134-0.734-1.458-2.251-0.721-3.385
		c0.735-1.134,2.25-1.457,3.385-0.722c22.503,14.598,35.938,39.306,35.938,66.095c0,36.066-24.384,67.446-59.297,76.31
		C109.728,168.517,109.525,168.542,109.326,168.542"/>
</g>
</svg>
