<?xml version="1.0" encoding="utf-8"?>
<!-- Generator: Adobe Illustrator 26.3.1, SVG Export Plug-In . SVG Version: 6.00 Build 0)  -->
<svg version="1.1" id="Layer_1" xmlns="http://www.w3.org/2000/svg" xmlns:xlink="http://www.w3.org/1999/xlink" x="0px" y="0px"
	 viewBox="0 0 190 190" style="enable-background:new 0 0 190 190;" xml:space="preserve">
<style type="text/css">
	.st0{display:none;}
	.st1{display:inline;opacity:0.4;fill:#FFFFFF;stroke:#000000;stroke-miterlimit:10;enable-background:new    ;}
	.st2{fill:#EAEAEA;}
	.st3{fill:#FFFFFF;}
	.st4{fill:#F56BD6;}
	.st5{fill:#4C4C4C;}
</style>
<g id="Layer_4" class="st0">
</g>
<g id="Base_Circle" class="st0">
	<circle class="st1" cx="-76" cy="55.2" r="77.2"/>
	<circle class="st1" cx="142.5" cy="55.2" r="77.2"/>
</g>
<g id="Instructions_and_Tone">
</g>
<g id="Shadow_Layer">
	<circle class="st2" cx="105.6" cy="100.9" r="77.2"/>
</g>
<polygon class="st3" points="144.5,40 57.2,35.9 36.4,125.6 115,144.2 "/>
<g>
	<g>
		<g>
			<path class="st4" d="M151.2,38.3c-0.1-1.2-0.3-2.3-1.1-3.1c-1-1-2.6-1.2-4.2-1.4c-15.5-1.9-31.3-1.4-45.6-1.8
				c-16.4-0.4-31.8-0.1-46.1-0.5c-0.1,0-0.1,0-0.2,0c-0.5,0.1-1,0.2-1.3,0.6c-0.3,0.3-0.4,0.8-0.5,1.2c-2.1,7.5-4.1,14.8-6,22
				c-2.3,8.5-4.3,16.8-6.1,24.8c-3.5,15.5-6.3,30.4-8.4,44.6c-0.1,0.4-0.8,4.6-0.7,4.6c23.5,6.9,50.2,13.4,80.8,19.7
				c1.9,0.4,4,0.8,5.9,0c2.1-0.9,3.1-3.1,3.8-5c6.1-16.3,11.9-33.6,17.5-51.9c2.9-9.5,5.7-19.3,8.5-29.4
				C149.6,55,151.8,46,151.2,38.3z M113,110c-1.8,5-3.2,9.9-4.5,14.8c-0.7,2.8-1.6,5.9-3.3,8.4c-0.8,1.2-1.6,2.2-3.2,2.2
				c-2.2,0-5.1-1.2-7.1-1.8c-10.7-2.6-20.8-5.1-30.4-7.5c-4.3-1-8.4-2.1-12.5-3.1c-2.5-0.6-5.1-1-7.4-2c0.5-3.8,1.1-7.2,2.2-11
				c1.1-3.8,2.4-7.6,3.8-11.5c1.2-3.2,3.3-12.1,6.9-13.9c0.8-0.4,1.7-0.3,2.6-0.3c7.4,0.7,15.5,1.8,23.5,3.1
				c8.9,1.4,20.3,1.7,29.3,4.7C120,94.6,115,104.4,113,110z M135.1,45.4c-5.9,12.2-11.8,23.9-17.7,35c-12.7-1.3-24.8-2.6-36.3-3.8
				c-0.2,0-0.5-0.1-0.6-0.4c-0.1-0.4,0.2-1.1,0.4-1.7c2-5.9,4.4-12,6.6-18.2c1.8-4.9,3.6-11.3,6.3-16.5c14-1.1,27.4,0.8,41.4,2.9
				c0.3,0,0.6,0.1,0.6,0.6C135.9,43.8,135.5,44.6,135.1,45.4z"/>
		</g>
	</g>
	<g>
		<path class="st5" d="M85.7,169.7c-43.7,0-79.2-35.5-79.2-79.2S42,11.3,85.7,11.3c13.4,0,26.6,3.4,38.3,9.9c1.2,0.7,1.7,2.2,1,3.4
			c-0.7,1.2-2.2,1.7-3.4,1c-10.9-6-23.3-9.2-35.8-9.2c-40.9,0-74.2,33.3-74.2,74.2s33.3,74.2,74.2,74.2s74.1-33.5,74.1-74.4
			c0-8.3-1.4-16.4-4-24.2c-0.5-1.3,0.2-2.7,1.6-3.2c1.3-0.5,2.7,0.2,3.2,1.6c2.8,8.3,4.3,17,4.3,25.8
			C165,134.1,129.4,169.7,85.7,169.7z"/>
	</g>
</g>
</svg>
