<?xml version="1.0" encoding="utf-8"?>
<!-- Generator: Adobe Illustrator 26.0.2, SVG Export Plug-In . SVG Version: 6.00 Build 0)  -->
<svg version="1.1" id="Layer_1" xmlns="http://www.w3.org/2000/svg" xmlns:xlink="http://www.w3.org/1999/xlink" x="0px" y="0px"
	 viewBox="0 0 202.7 190" style="enable-background:new 0 0 202.7 190;" xml:space="preserve">
<style type="text/css">
	.st0{display:none;}
	.st1{display:inline;opacity:0.4;fill:#FFFFFF;stroke:#000000;stroke-miterlimit:10;enable-background:new    ;}
	.st2{fill:#EAEAEA;}
	.st3{fill:#79DE75;}
	.st4{fill:#4C4C4C;}
</style>
<g id="Layer_4" class="st0">
</g>
<g id="Base_Circle" class="st0">
	<circle class="st1" cx="-54.5" cy="55.2" r="77.2"/>
	<circle class="st1" cx="173" cy="50.2" r="77.2"/>
</g>
<g id="Instructions_and_Tone">
</g>
<g>
	<g id="Shadow_Layer">
		<circle class="st2" cx="104.8" cy="100.9" r="77.2"/>
	</g>
	<g id="Layer_1_00000183949044655107214610000000890460927950755512_">
		<path class="st3" d="M73,139.1c40.6-24.5,86-65.9,123.5-95.9c-5.9-6.2-11.9-12.4-17.8-18.6c-1-1.1-2.2-2.2-3.7-2.3
			c-1.3-0.1-2.5,0.8-3.6,1.6c-30.4,23.7-59.6,59.2-93.3,77.9c-1.8,1-3.7,1.9-5.7,1.5c-1.8-0.4-3.1-1.9-4.2-3.3
			c-5.1-6.3-8.3-14-13.4-20.3c-2.5-3.2-4.5-4.8-6.4-5.2c-3.4-0.8-6.5,2-11.5,6c-4.3,3.4-9.1,6.1-13.4,9.5
			c12.5,12,27.8,34.8,40.3,46.8c1.4,1.4,3,2.8,4.9,3.1C70.2,140,71.7,139.8,73,139.1"/>
		<path class="st4" d="M85,169.3c-43.4,0-78.7-35.3-78.7-78.7c0-43.4,35.3-78.7,78.7-78.7c21,0,40.8,8.2,55.7,23.1c1,1,1,2.5,0,3.5
			c-1,1-2.5,1-3.5,0C123.2,24.5,104.7,16.8,85,16.8c-40.7,0-73.8,33.1-73.8,73.8c0,40.7,33.1,73.8,73.8,73.8
			c40.7,0,73.8-33.1,73.8-73.8c0-1.4,1.1-2.4,2.4-2.4s2.4,1.1,2.4,2.4C163.7,134,128.4,169.3,85,169.3"/>
	</g>
</g>
</svg>
