<svg xmlns="http://www.w3.org/2000/svg" xmlns:xlink="http://www.w3.org/1999/xlink"  viewBox="0 0 2048 2048">
  <defs>
    <clipPath id="clip-Icons_Type_03_ContinuousImprovement_NotSelected">
      <rect width="2048" height="2048"/>
    </clipPath>
  </defs>
  <g id="Icons_Type_03_ContinuousImprovement_NotSelected" clip-path="url(#clip-Icons_Type_03_ContinuousImprovement_NotSelected)">
    <g id="Icons_Type_03_Continuous_Improvement_Not_Selected" data-name="Icons_Type_03_Continuous Improvement_Not Selected" transform="translate(251.008 250.007)">
      <path id="Path_25" data-name="Path 25" d="M1508.664,452.269c-115.521,296.909-407.363,502.617-743.791,493.5C338.257,933.606,1.828,577.923,13.988,150.294c1.013-23.307,2.027-45.6,5.067-67.894" transform="translate(-13.668 601.928)" fill="none" stroke="#c1c1c1" stroke-linecap="round" stroke-miterlimit="10" stroke-width="5"/>
      <path id="Path_26" data-name="Path 26" d="M20.8,461.062C147.467,190.5,426.136,6.072,743.311,15.192c426.616,12.16,763.045,367.843,750.885,795.472-1.013,22.294-2.027,45.6-5.067,66.88" transform="translate(51.467 -14.868)" fill="none" stroke="#c1c1c1" stroke-linecap="round" stroke-miterlimit="10" stroke-width="5"/>
      <g id="Group_17" data-name="Group 17" transform="translate(12.961 154.505)">
        <g id="Group_15" data-name="Group 15" transform="translate(0 313.419)">
          <path id="Path_27" data-name="Path 27" d="M1009.566,658.465c-12.16,9.12-18.24,33.44-30.4,45.6-14.187,14.187-30.4,25.334-48.64,34.454-36.48,20.267-77.014,33.44-115.521,46.614-89.174,29.387-241.175,35.467-311.1-39.52-54.72-58.774-80.054-155.041-76-234.082,2.027-35.467-7.093-101.334,62.827-66.88C511,454.784,529.243,467.957,549.51,479.1c40.534,22.294,127.681,46.614,142.881,16.213,10.133-22.293-29.387-53.707-46.614-80.054C574.844,309.876,532.283,195.368,470.47,88.968c-5.067-9.12-11.147-19.253-22.293-24.32-8.107-4.053-16.213-4.053-23.307-3.04-139.841,10.133-273.6,32.427-390.136,74.987-7.093,2.027-13.173,5.067-17.227,10.133C9.4,158.888,21.56,181.182,39.8,198.408s41.547,28.374,63.84,40.534C156.334,266.3,200.921,277.449,207,320.009c5.067,32.427-15.2,62.827-16.213,94.241-6.08,113.494,37.494,239.148,120.587,353.656,19.253,26.347,48.64,64.854,95.254,100.321C444.123,897.613,487.7,921.933,540.39,942.2c107.414,42.56,216.855,59.787,317.175,49.654a559.18,559.18,0,0,0,118.561-24.32c48.64-16.214,92.214-40.534,138.828-58.774,45.6-17.227,74.987-45.6,107.414-83.094a3.722,3.722,0,0,0,1.013-3.04,2.179,2.179,0,0,0-2.027-2.027c-36.48-20.267-66.88-56.747-98.294-83.094-19.254-16.214-38.507-33.44-57.76-49.654-9.12-7.094-41.547-39.521-55.734-29.387Z" transform="translate(-14.947 -61.044)" fill="#ff6912"/>
        </g>
        <g id="Group_16" data-name="Group 16" transform="translate(485.915)">
          <path id="Path_28" data-name="Path 28" d="M956.672,454.551c-21.28-97.281-72.96-182.4-153.014-252.322C740.831,146.5,662.8,101.909,571.6,70.5,313.2-17.665,182.481,50.229,73.04,161.7c-7.093,7.093-15.2,17.227-6.08,31.414,6.08,10.133,18.24,19.253,29.387,26.347,58.774,42.56,113.494,89.174,162.134,138.828,5.067,5.067,10.133,10.133,16.213,12.16s10.133,0,13.173-3.04c46.614-33.44,53.707-94.241,109.441-121.6,51.68-25.333,125.654-17.227,207.735,11.147C637.47,268.1,663.817,281.27,678,293.43c18.24,16.213,34.454,48.64,43.574,88.161,18.24,80.054,4.053,132.748-31.413,183.415-3.04,4.053-6.08,8.107-11.147,10.133-7.093,2.027-16.213-1.013-25.333-3.04-29.387-9.12-102.347-52.694-123.627-50.667-32.427,3.04-14.187,65.867-8.107,93.227,19.254,84.107,74.987,177.334,129.708,266.508,3.04,4.053,6.08,9.12,10.133,12.16,7.093,5.067,14.187,6.08,21.28,6.08,98.294,7.093,188.481,0,266.508-20.267,17.227-5.067,173.281-52.694,130.721-80.054-50.667-34.454-102.348-67.894-154.028-102.347C968.832,630.873,978.966,554.872,956.672,454.551Z" transform="translate(-62.899 -30.115)" fill="#ff6912"/>
        </g>
      </g>
    </g>
  </g>
</svg>
