<?xml version="1.0" encoding="utf-8"?>
<!-- Generator: Adobe Illustrator 26.3.1, SVG Export Plug-In . SVG Version: 6.00 Build 0)  -->
<svg version="1.1" id="Layer_1" xmlns="http://www.w3.org/2000/svg" xmlns:xlink="http://www.w3.org/1999/xlink" x="0px" y="0px"
	 viewBox="0 0 190 190" style="enable-background:new 0 0 190 190;" xml:space="preserve">
<style type="text/css">
	.st0{display:none;}
	.st1{display:inline;opacity:0.4;fill:#FFFFFF;stroke:#000000;stroke-miterlimit:10;enable-background:new    ;}
	.st2{fill:#EAEAEA;}
	.st3{fill:#FFFFFF;}
	.st4{fill:#99C2FD;}
	.st5{fill:#4C4C4C;}
</style>
<g id="Layer_4" class="st0">
</g>
<g id="Base_Circle" class="st0">
	<circle class="st1" cx="-76" cy="55.2" r="77.2"/>
	<circle class="st1" cx="142.5" cy="55.2" r="77.2"/>
</g>
<g id="Instructions_and_Tone">
</g>
<g id="Shadow_Layer">
	<circle class="st2" cx="105.6" cy="100.9" r="77.2"/>
</g>
<polygon class="st3" points="117.6,31.9 54.4,90.1 59.4,125.9 89.5,104 122.6,35.8 "/>
<g>
	<g>
		<g>
			<g>
				<path class="st4" d="M134.2,21.2c-0.1-1.5-0.4-3-1.2-4.3c-0.8-1.3-2.3-2.2-3.8-2c-0.8,0.1-1.4,0.5-2.1,0.9
					c-11.3,6.6-21.7,14.3-32.4,21.8C82,46.5,69.2,55.3,56.5,64.2c-5.6,3.9-11.4,7.4-16.8,11.5c-2.9,2.2-13.7,9.1-11.9,13.7
					c0.6,1.5,2,2.5,3.3,3.4c2.3,1.5,4.6,3,7,4.3c3.9,2,13.9,4.1,13.2,9.5c-0.9,7.5-2.1,15-2.5,22.6c-0.2,4.2-0.5,12.2,3.7,14.6
					c4.1,2.3,8.9-1.3,12.1-4.8c6.4-7,12.4-14.3,17.9-22c5.7,3,11.5,5.2,17.4,7.7c3.8,1.6,10.4,6.4,14.4,2.2
					c2.7-2.9,2.7-11.5,3.4-15.4c3-15.7,6-31.3,9-47c1.3-6.9,2.7-13.8,4-20.7C132.2,36.1,134.9,29.3,134.2,21.2z M80.9,96.5
					c-2.1,2.8-8,12-10.7,15.7c-0.9,1.3-6.9,8.2-6.8,8.4c0.2-7.4,0-14.8-0.7-22.2c-0.1-1-0.2-2,0.3-2.8c0.3-0.5,0.7-0.9,1.2-1.2
					c4.3-3.5,3.7-3.5,7.5-7.5c8-8.6,28.8-30.9,29.8-32c1.7-1.8,12.2-13.1,17.3-15.1c-2.7,7-7.4,13.1-11.7,19.1
					c-4.2,5.9-7.9,12.2-12.2,18.1C90.3,83.5,85.6,90,80.9,96.5z"/>
			</g>
		</g>
	</g>
	<g>
		<path class="st5" d="M85.7,169.9c-20.2,0-39.4-7.6-54.2-21.5C16,133.9,7.1,114.2,6.5,93.1c-0.8-21.2,6.8-41.4,21.3-56.9
			s34.2-24.4,55.3-25c9-0.3,17.9,0.9,26.4,3.6c1.3,0.4,2.1,1.8,1.6,3.2c-0.4,1.3-1.8,2.1-3.2,1.6c-8-2.5-16.3-3.6-24.7-3.4
			c-19.8,0.6-38.2,9-51.8,23.5C17.9,54.1,10.8,73,11.4,92.9s9,38.2,23.5,51.8s33.4,20.7,53.2,20.1c19.8-0.6,38.2-9,51.8-23.5
			s20.7-33.4,20.1-53.2c-0.6-18.4-7.9-35.8-20.6-49c-1-1-0.9-2.6,0.1-3.6s2.6-0.9,3.6,0.1c13.6,14.2,21.4,32.8,22,52.4
			c0.7,21.2-6.9,41.4-21.4,56.8c-14.5,15.5-34.2,24.4-55.3,25C87.4,169.8,86.5,169.9,85.7,169.9z"/>
	</g>
</g>
</svg>
