<?xml version="1.0" encoding="utf-8"?>
<!-- Generator: Adobe Illustrator 26.0.2, SVG Export Plug-In . SVG Version: 6.00 Build 0)  -->
<svg version="1.1" xmlns="http://www.w3.org/2000/svg" xmlns:xlink="http://www.w3.org/1999/xlink" x="0px" y="0px"
	 viewBox="0 0 181 181" style="enable-background:new 0 0 181 181;" xml:space="preserve">
<style type="text/css">
	.st0{fill:#E5E5E5;}
	.st1{fill:#2A2A2A;}
	.st2{font-family:'Karrik-Regular';}
	.st3{font-size:18px;}
	.st4{font-size:28.1639px;}
	.st5{fill:#4C4C4C;}
</style>
<g id="Layer_2">
</g>
<g id="Layer_1">
	<circle class="st0" cx="85.4" cy="90.5" r="77.8"/>
	<text transform="matrix(1 0 0 1 30.0793 78.6566)" class="st1 st2 st3">Select an idea</text>
	<text transform="matrix(1 0 0 1 30.2265 107.8299)" class="st1 st2 st4">category</text>
	<path class="st5" d="M68.8,13.5c0.4-0.4,0.7-0.6,1.3-0.7c25.7-4.9,52.2,3.1,70.7,21.6c30.7,30.7,30.7,80.6,0,111.3
		s-80.6,30.7-111.3,0C12.2,128.5,4,104.6,7.1,80.1c0.2-1.3,1.4-2.3,2.7-2.1c1.3,0.2,2.3,1.4,2.1,2.7c-2.9,22.8,4.7,45.3,21,61.6
		c28.8,28.8,75.6,28.8,104.4,0s28.8-75.6,0-104.4c-17.4-17.4-42.2-25-66.3-20.2c-1.3,0.2-2.6-0.6-2.9-1.9C68,14.8,68.3,14,68.8,13.5
		"/>
</g>
</svg>
