<?xml version="1.0" encoding="utf-8"?>
<!-- Generator: Adobe Illustrator 26.3.1, SVG Export Plug-In . SVG Version: 6.00 Build 0)  -->
<svg version="1.1" id="Layer_1" xmlns="http://www.w3.org/2000/svg" xmlns:xlink="http://www.w3.org/1999/xlink" x="0px" y="0px"
	 viewBox="0 0 190 190" style="enable-background:new 0 0 190 190;" xml:space="preserve">
<style type="text/css">
	.st0{display:none;}
	.st1{display:inline;opacity:0.4;fill:#FFFFFF;stroke:#000000;stroke-miterlimit:10;enable-background:new    ;}
	.st2{fill:#EAEAEA;}
	.st3{fill:#FFE149;}
	.st4{fill:#4C4C4C;}
</style>
<g id="Layer_4" class="st0">
</g>
<g id="Base_Circle" class="st0">
	<circle class="st1" cx="-76" cy="55.2" r="77.2"/>
	<circle class="st1" cx="142.5" cy="55.2" r="77.2"/>
</g>
<g id="Instructions_and_Tone">
</g>
<g id="Shadow_Layer">
	<circle class="st2" cx="105.6" cy="100.9" r="77.2"/>
</g>
<g>
	<g>
		<path class="st3" d="M71.9,153.1c-5.1,1.8-9.5,8.3-8.5,14.9c1.5,9.9,11.4,12,17.9,9.9c7.2-2.3,11.8-14.3,5.5-21.4
			C83,152.3,76.4,151.5,71.9,153.1"/>
	</g>
	<g>
		<path class="st3" d="M60.9,68.8c1.9,0.4,4,0.5,6.1,0.5c7.1,0,11.9-0.9,12.7-8.5c0.7-6.4-3.2-13.8,2.9-18.5c5-3.9,15-1.8,19.3,2.4
			c8.3,8.1,2.7,22.9-6.7,27.1c-8.1,3.7-17.6,8.9-21.6,17.3c-2.6,5.5-5,12.3-5.7,18.4c-2.1,18.3,0.6,27.6,11,27.6
			c15.3,0,11.9-28.5,24.1-34.8c21-10.8,31.5-21.4,28.4-49.8c-2.1-19.1-13.9-37.1-35-38c-9.2-0.4-25.6,4.7-35.2,17.7
			c-3.9,5.3-8.1,13-8.3,19.8c-0.1,5.2-0.9,13,3.5,16.7C57.7,67.8,59.3,68.4,60.9,68.8z"/>
	</g>
	<g>
		<path class="st4" d="M54.7,163.8c-0.3,0-0.5-0.1-0.8-0.2C22.8,150,3.6,118.1,6.3,84.2c2.6-32.8,25.6-61.1,57.2-70.3
			c1.3-0.4,2.7,0.4,3.1,1.7s-0.4,2.7-1.7,3.1c-29.7,8.6-51.2,35.1-53.7,65.9c-2.5,31.8,15.4,61.7,44.6,74.4c1.3,0.5,1.8,2,1.3,3.3
			C56.7,163.3,55.7,163.9,54.7,163.8"/>
	</g>
	<g>
		<path class="st4" d="M98.7,169.1c-1.1-0.1-2-0.9-2.2-2.1c-0.2-1.3,0.7-2.6,2-2.9c33.7-5.8,59.1-33.6,61.8-67.8
			c2-25.4-8.9-49.7-29.1-65.3c-1.1-0.8-1.3-2.4-0.5-3.5s2.4-1.3,3.5-0.5c21.5,16.5,33.1,42.5,31,69.6c-2.9,36.4-30,66.1-65.9,72.3
			C99.1,169.1,98.9,169.1,98.7,169.1"/>
	</g>
</g>
</svg>
