<?xml version="1.0" encoding="utf-8"?>
<!-- Generator: Adobe Illustrator 26.0.2, SVG Export Plug-In . SVG Version: 6.00 Build 0)  -->
<svg version="1.1" id="Layer_1" xmlns="http://www.w3.org/2000/svg" xmlns:xlink="http://www.w3.org/1999/xlink" x="0px" y="0px"
	 viewBox="0 0 220 181" enable-background="new 0 0 220 181" xml:space="preserve">
<g id="Layer_1_00000024688917951254936150000008386693706061424544_">
	<path fill="#79DE75" d="M81.62,138.952c40.561-24.502,85.965-65.903,123.472-95.871c-5.941-6.198-11.882-12.396-17.823-18.596
		c-1.035-1.079-2.228-2.233-3.723-2.291c-1.336-0.051-2.521,0.798-3.576,1.621c-30.389,23.715-59.632,59.151-93.284,77.95
		c-1.75,0.979-3.732,1.937-5.683,1.474c-1.772-0.419-3.059-1.904-4.21-3.313c-5.134-6.291-8.316-13.966-13.369-20.333
		c-2.505-3.156-4.517-4.753-6.435-5.208c-3.386-0.804-6.476,1.951-11.461,5.965c-4.271,3.439-9.085,6.098-13.356,9.523
		c12.508,11.983,27.784,34.805,40.293,46.787c1.425,1.366,2.99,2.801,4.947,3.063C78.84,139.914,80.387,139.697,81.62,138.952"/>
	<path fill="#C1C1C1" d="M93.634,169.228c-43.41,0-78.727-35.317-78.727-78.727s35.317-78.728,78.727-78.728
		c21.029,0,40.798,8.189,55.668,23.059c0.956,0.956,0.956,2.506,0,3.461c-0.956,0.956-2.505,0.956-3.461,0.001
		C131.895,24.349,113.354,16.67,93.634,16.67c-40.711,0-73.832,33.121-73.832,73.832s33.121,73.831,73.832,73.831
		c40.712,0,73.833-33.12,73.833-73.831c0-1.353,1.095-2.448,2.447-2.448s2.448,1.096,2.448,2.448
		C172.363,133.91,137.044,169.228,93.634,169.228"/>
</g>
</svg>
