<?xml version="1.0" encoding="utf-8"?>
<!-- Generator: Adobe Illustrator 26.0.2, SVG Export Plug-In . SVG Version: 6.00 Build 0)  -->
<svg version="1.1" id="Layer_1" xmlns="http://www.w3.org/2000/svg" xmlns:xlink="http://www.w3.org/1999/xlink" x="0px" y="0px"
	 viewBox="0 0 190 190" enable-background="new 0 0 190 190" xml:space="preserve">
<g id="Layer_4" display="none">
</g>
<g id="Base_Circle" display="none">
</g>
<g id="Instructions_and_Tone">
</g>
<g>
	<g id="Shadow_Layer">
		<circle fill="#EAEAEA" cx="108.971" cy="101.25" r="77.25"/>
	</g>
	<g id="Layer_1_00000038400868739499727440000011619230966749976733_">
		<path fill="#FF6912" d="M78.643,68.442c-3.363-5.792,2.121-15.146,7.301-19.392c1.793-1.471,4.539-2.468,7.416-2.848
			c-1.684,10.769-3.391,21.533-5.123,32.294C84.462,75.904,81.133,72.731,78.643,68.442 M101.572,122.821
			c-1.438,2.63-4.157,4.369-7.019,5.261c-2.079,0.648-4.25,0.899-6.43,1.043c1.425-8.472,2.84-16.947,4.233-25.425
			C100.719,108.282,106.32,114.141,101.572,122.821 M127.079,37.203c-6.177-4.766-14.419-7.713-22.777-8.755
			c1.085-7.075,2.185-14.148,3.248-21.227c0.327-2.176-0.546-4.385-2.849-5.018c-1.927-0.529-4.689,0.657-5.019,2.849
			c-1.151,7.667-2.333,15.328-3.51,22.991c-2.829,0.076-5.601,0.371-8.228,0.914c-12.756,2.642-28.662,13.014-33.068,25.272
			c-4.406,12.259-1.195,27.129,8.477,35.855c3.772,3.404,12.837,6.341,21.383,9.984c-1.459,8.89-2.944,17.776-4.438,26.662
			c-0.763-0.421-1.499-0.747-2.149-0.781c-4.872-0.262-8.716-8.791-13.563-9.342c-6.737-0.766-13.57-0.526-14.562,7.037
			c-2.054,15.679,12.715,26.555,25.958,28.43c-1.3,7.568-2.589,15.138-3.913,22.701c-0.379,2.168,0.582,4.395,2.85,5.018
			c1.968,0.541,4.636-0.667,5.018-2.849c1.415-8.084,2.803-16.173,4.19-24.263c16.199,0.574,33.167-2.61,41.46-17.174
			c4.743-8.327,5.521-18.801,2.064-27.738C121.85,92.773,107.96,88.855,95.762,82.81c1.923-11.921,3.821-23.846,5.684-35.778
			c0.812,0.342,1.553,0.764,2.17,1.296c5.81,5.015,1.929,11.247,11.357,13.706c6.325,1.649,13.768-0.261,17.593-5.561
			c0.497-0.69,0.91-1.374,1.243-2.053C137.146,47.641,132.635,41.491,127.079,37.203"/>
		<path fill="#4C4C4C" d="M64.951,165.982c-0.253,0-0.509-0.04-0.763-0.122C31.759,155.245,9.971,125.172,9.971,91.024
			c0-43.411,35.317-78.728,78.728-78.728c1.352,0,2.446,1.096,2.446,2.448c0,1.353-1.095,2.447-2.446,2.447
			c-40.711,0-73.832,33.122-73.832,73.833c0,32.024,20.433,60.229,50.845,70.183c1.284,0.422,1.984,1.804,1.564,3.088
			C66.938,165.327,65.979,165.982,64.951,165.982"/>
		<path fill="#4C4C4C" d="M91.305,169.708c-1.314,0-2.4-1.042-2.444-2.366c-0.046-1.35,1.013-2.481,2.364-2.527
			c39.984-1.345,71.306-33.757,71.306-73.79c0-30.288-18.977-57.975-47.222-68.893c-1.26-0.487-1.887-1.904-1.399-3.166
			c0.487-1.26,1.9-1.888,3.165-1.4c30.117,11.642,50.352,41.163,50.352,73.458c0,42.688-33.399,77.25-76.037,78.682
			C91.361,169.707,91.333,169.708,91.305,169.708"/>
	</g>
</g>
</svg>
