<svg xmlns="http://www.w3.org/2000/svg" xmlns:xlink="http://www.w3.org/1999/xlink" viewBox="0 0 2048 2048">
  <defs>
    <clipPath id="clip-Icons_Type_03_ContinuousImprovement_NotSelected">
      <rect width="2048" height="2048"/>
    </clipPath>
  </defs>
  <g id="Icons_Type_03_ContinuousImprovement_NotSelected" clip-path="url(#clip-Icons_Type_03_ContinuousImprovement_NotSelected)">
    <g id="Icons_Type_03_Continuous_Improvement_Not_Selected-2" data-name="Icons_Type_03_Continuous Improvement_Not Selected-2" transform="translate(239.838 237.64)">
      <path id="Path_41" data-name="Path 41" d="M783.659,964.307H762.1C335.828,952.53-.29,595.3,11.469,169.374c.98-22.572,1.96-45.144,4.9-67.717,1.96-13.74,13.719-22.572,27.438-21.591,13.719,1.963,23.518,13.74,21.559,27.479-1.96,20.609-3.92,42.2-4.9,63.791C48.706,570.766,364.246,905.423,763.08,916.219c304.76,8.833,585.023-176.652,695.755-462.239,4.9-12.758,18.619-18.647,31.358-13.74s18.619,18.647,13.719,31.4C1388.28,768.027,1101.158,964.307,783.659,964.307Z" transform="translate(0 596.047)" fill="#c1c1c1"/>
      <path id="Path_42" data-name="Path 42" d="M1463.138,897.909h-2.94c-13.719-1.963-23.518-13.74-21.559-27.479,1.96-20.609,3.92-42.2,4.9-62.81,5.88-193.336-64.676-377.839-196.967-518.179C1113.3,148.12,933.972,67.646,740.925,61.757,452.823,53.906,187.26,217.8,64.768,478.852A23.87,23.87,0,0,1,32.43,490.629c-11.759-5.888-17.639-20.609-11.759-32.386C151,178.544,435.184,3.855,742.885,12.687c205.787,5.888,397.854,92.252,539.945,242.406S1499.4,601.527,1493.516,808.6c-.98,22.572-1.96,45.144-4.9,67.717C1485.677,888.1,1475.877,897.909,1463.138,897.909Z" transform="translate(63.313 0)" fill="#c1c1c1"/>
      <g id="Group_33" data-name="Group 33" transform="translate(48.191 186.543)">
        <g id="Group_31" data-name="Group 31" transform="translate(0 303.54)">
          <path id="Path_43" data-name="Path 43" d="M976.781,639.634c-11.759,8.833-17.639,32.386-29.4,44.163-13.719,13.74-29.4,24.535-47.037,33.368-35.278,19.628-74.475,32.386-111.713,45.144-86.234,28.46-233.225,34.349-300.841-38.275-52.917-56.921-77.415-150.154-73.5-226.7,1.96-34.349-6.859-98.14,60.756-64.772,19.6,9.814,37.238,22.572,56.836,33.368,39.2,21.591,123.472,45.144,138.171,15.7,9.8-21.591-28.418-52.014-45.077-77.53-68.6-102.066-109.753-212.964-169.529-316.01-4.9-8.833-10.779-18.647-21.559-23.554-7.84-3.926-15.679-3.926-22.539-2.944C276.126,71.4,146.774,92.994,34.081,134.213c-6.86,1.963-12.739,4.907-16.659,9.814-7.839,11.777,3.92,33.368,21.559,50.051s40.177,27.479,61.736,39.256c50.957,26.5,94.074,37.293,99.954,78.512,4.9,31.4-14.7,60.847-15.679,91.27-5.88,109.917,36.258,231.61,116.612,342.508,18.619,25.516,47.037,62.809,92.114,97.158,36.258,28.461,78.395,52.014,129.352,71.642,103.873,41.219,209.706,57.9,306.72,48.088a540.042,540.042,0,0,0,114.653-23.554c47.037-15.7,89.174-39.256,134.251-56.921,44.1-16.684,72.515-44.163,103.873-80.475a3.608,3.608,0,0,0,.98-2.944,2.109,2.109,0,0,0-1.96-1.963c-35.278-19.628-64.676-54.958-95.054-80.475-18.619-15.7-37.238-32.386-55.856-48.089-8.819-6.87-40.177-38.275-53.9-28.461Z" transform="translate(-14.947 -61.044)" fill="#ff6912"/>
        </g>
        <g id="Group_32" data-name="Group 32" transform="translate(469.898)">
          <path id="Path_44" data-name="Path 44" d="M927.211,441.173C906.632,346.959,856.655,264.521,779.24,196.8,718.484,142.828,643.029,99.646,554.835,69.223c-249.884-85.382-376.3-19.628-482.129,88.326-6.86,6.87-14.7,16.684-5.88,30.423,5.88,9.814,17.639,18.647,28.418,25.516C152.081,254.707,205,299.851,252.034,347.94c4.9,4.907,9.8,9.814,15.679,11.777s9.8,0,12.739-2.944C325.53,324.386,332.389,265.5,386.286,239c49.977-24.535,121.512-16.684,200.887,10.8,31.358,10.8,56.836,23.554,70.555,35.33,17.639,15.7,33.318,47.107,42.137,85.382,17.639,77.531,3.92,128.563-30.378,177.633-2.94,3.926-5.88,7.851-10.779,9.814-6.859,1.963-15.679-.981-24.5-2.944-28.418-8.833-98.974-51.033-119.552-49.07-31.358,2.944-13.719,63.791-7.839,90.289,18.619,81.456,72.515,171.745,125.432,258.108,2.94,3.926,5.88,8.833,9.8,11.777,6.859,4.907,13.719,5.888,20.579,5.888,95.054,6.87,182.268,0,257.723-19.628,16.659-4.907,167.569-51.033,126.412-77.531-49-33.368-98.974-65.754-148.95-99.121C938.97,611.936,948.769,538.331,927.211,441.173Z" transform="translate(-62.899 -30.115)" fill="#ff6912"/>
        </g>
      </g>
    </g>
  </g>
</svg>
