<?xml version="1.0" encoding="utf-8"?>
<!-- Generator: Adobe Illustrator 26.3.1, SVG Export Plug-In . SVG Version: 6.00 Build 0)  -->
<svg version="1.1" id="Layer_1" xmlns="http://www.w3.org/2000/svg" xmlns:xlink="http://www.w3.org/1999/xlink" x="0px" y="0px"
	 viewBox="0 0 190 190" style="enable-background:new 0 0 190 190;" xml:space="preserve">
<style type="text/css">
	.st0{display:none;}
	.st1{display:inline;opacity:0.4;fill:#FFFFFF;stroke:#000000;stroke-miterlimit:10;enable-background:new    ;}
	.st2{fill:#EAEAEA;}
	.st3{fill:#4C4C4C;}
	.st4{fill:#FF6912;}
</style>
<g id="Layer_4" class="st0">
</g>
<g id="Base_Circle" class="st0">
	<circle class="st1" cx="-76" cy="55.2" r="77.2"/>
	<circle class="st1" cx="142.5" cy="55.2" r="77.2"/>
</g>
<g id="Instructions_and_Tone">
</g>
<g id="Shadow_Layer">
	<circle class="st2" cx="105.6" cy="100.9" r="77.2"/>
</g>
<g>
	<g>
		<path class="st3" d="M23.1,137c-0.8,0-1.6-0.4-2.1-1.1C0.8,107,2.3,67.7,24.7,40.4c20.2-24.6,52.9-34.6,83.4-25.5
			c1.3,0.4,2.1,1.8,1.7,3.1c-0.4,1.3-1.8,2.1-3.1,1.7c-28.5-8.5-59.2,0.9-78.1,23.9c-21,25.6-22.4,62.3-3.4,89.4
			c0.8,1.1,0.5,2.7-0.6,3.5C24.1,136.8,23.6,137,23.1,137z"/>
	</g>
	<g>
		<path class="st3" d="M85.7,169.5c-7.5,0-15.1-1.1-22.5-3.3c-1.3-0.4-2.1-1.8-1.7-3.1s1.8-2.1,3.1-1.7c7,2.1,14.1,3.1,21.1,3.1
			c21.7,0,42.7-9.6,57-27c18.9-23,22.2-54.9,8.4-81.3c-0.6-1.2-0.2-2.7,1.1-3.4c1.2-0.6,2.7-0.2,3.4,1.1
			c14.8,28.2,11.3,62.2-8.9,86.8C131.4,159.2,108.9,169.5,85.7,169.5z"/>
	</g>
	<path class="st4" d="M124.5,126.2c-4.4-6.8-8.9-13.6-13-20.5c-1.8-3.1-3.7-6.1-5.5-9.2c4.3-5.7,8.6-11.5,12.9-17.2
		c11.4-15.2,22.8-30.5,34.7-45.4c-7.5-5.1-15.1-10.1-22.6-15.2c-1.3-0.9-2.8-1.8-4.5-1.4c-1.5,0.4-2.7,1.7-3.7,3
		c-11.9,14.6-23.3,31.2-34.9,48c-0.3-0.4-0.5-0.8-0.8-1.2c-4.1-6.4-8.3-12.8-12.5-19.2c-2.1-3.2-4.1-6.4-6.2-9.7c-1-1.6-2-3.2-3-4.9
		c-0.6-1-1.3-3.2-2.7-3.4c-1.3-0.1-3,0.9-4,1.6c-1.8,1.2-3.5,2.4-5.2,3.7c-3.5,2.4-7,4.9-10.5,7.3c-1.1,0.8-2.4,1.7-2.6,3.1
		c-0.2,1.2,0.5,2.4,1,3.5c7.4,15.6,17.1,30.8,27.6,46c-11.8,16.1-24,31.4-37.5,44c-1.2,1.1-2.5,2.2-3.6,3.5c-0.9,1-3,1.8-2.4,3.3
		c0.3,0.7,0.7,1.4,1.2,2.1l16.9,15.7c1.2,1.1,2.4,2.3,4,2.7c0.4,0.1,0.8,0.2,1.2,0.1c0.2-0.1,0.4-0.2,0.6-0.3c2.4-1.5,4.2-4,6.1-6
		c2.1-2.2,4.1-4.5,6-6.8c7.9-9.4,15.1-19.4,22.7-28.9c1-1.2,1.9-2.5,2.9-3.7c5.9,8.1,11.8,16.2,17.5,24.3c1.3,1.8,3.4,5.7,6.1,4.3
		l20.6-8.9c2-1.1-0.9-4.6-1.6-5.8C128.1,131.8,126.3,129,124.5,126.2z"/>
</g>
</svg>
