<svg xmlns="http://www.w3.org/2000/svg" xmlns:xlink="http://www.w3.org/1999/xlink" viewBox="0 0 600 600">
  <defs>
    <clipPath id="clip-Icons_Idle_09_Save">
      <rect width="600" height="600"/>
    </clipPath>
  </defs>
  <g id="Icons_Idle_09_Save" clip-path="url(#clip-Icons_Idle_09_Save)">
    <g id="Icons_Idle_09_Save-2" data-name="Icons_Idle_09_Save" transform="translate(-11.6 -13.2)">
      <g id="Group_26" data-name="Group 26" transform="translate(104.308 89.667)">
        <g id="Group_25" data-name="Group 25">
          <path id="Path_22" data-name="Path 22" d="M491.143,59.141c-.379-4.543-1.136-8.707-4.164-11.735-3.786-3.785-9.842-4.543-15.9-5.3-58.675-7.192-118.486-5.3-172.618-6.814-62.082-1.514-120.379-.379-174.511-1.893h-.757c-1.893.379-3.785.757-4.921,2.271-1.136,1.136-1.514,3.028-1.893,4.543-7.95,28.391-15.52,56.025-22.713,83.281-8.707,32.177-16.278,63.6-23.091,93.88-13.249,58.675-23.849,115.079-31.8,168.833-.379,1.514-3.028,17.413-2.65,17.413,88.959,26.12,190.032,50.726,305.868,74.574,7.192,1.514,15.142,3.028,22.334,0,7.95-3.407,11.735-11.735,14.385-18.927Q413.351,366.712,444.96,262.8c10.978-35.962,21.577-73.06,32.177-111.293C485.086,122.359,493.414,88.29,491.143,59.141ZM346.537,330.561c-6.814,18.927-12.114,37.476-17.035,56.025-2.65,10.6-6.057,22.334-12.492,31.8-3.028,4.543-6.057,8.328-12.114,8.328-8.328,0-19.306-4.543-26.877-6.814-40.5-9.842-78.738-19.306-115.079-28.391-16.278-3.785-31.8-7.95-47.319-11.735-9.464-2.271-19.306-3.785-28.013-7.571a270.288,270.288,0,0,1,8.328-41.64c4.164-14.385,9.085-28.77,14.385-43.533,4.543-12.114,12.492-45.8,26.12-52.618,3.028-1.514,6.435-1.136,9.842-1.136,28.013,2.65,58.675,6.814,88.959,11.735,33.691,5.3,76.845,6.435,110.915,17.792C373.036,272.264,354.108,309.362,346.537,330.561ZM430.2,86.018c-22.334,46.183-44.669,90.473-67,132.492-48.076-4.921-93.88-9.842-137.413-14.385a2.354,2.354,0,0,1-2.271-1.514c-.379-1.514.757-4.164,1.514-6.435,7.571-22.334,16.656-45.426,24.984-68.9,6.814-18.549,13.628-42.776,23.849-62.461,53-4.164,103.722,3.028,156.719,10.978a1.993,1.993,0,0,1,2.271,2.271C433.225,79.962,431.711,82.99,430.2,86.018Z" transform="translate(-36.09 -33.4)" fill="#f56bd6"/>
        </g>
      </g>
      <g id="Group_27" data-name="Group 27" transform="translate(11.6 13.2)">
        <path id="Path_23" data-name="Path 23" d="M311.411,612.821C145.985,612.821,11.6,478.437,11.6,313.011S145.985,13.2,311.411,13.2A298.675,298.675,0,0,1,456.395,50.676c4.543,2.65,6.435,8.328,3.785,12.871s-8.328,6.435-12.871,3.785a282.052,282.052,0,0,0-135.52-34.827c-154.827,0-280.883,126.057-280.883,280.883S156.963,594.273,311.789,594.273s280.5-126.814,280.5-281.64a288.708,288.708,0,0,0-15.142-91.609c-1.893-4.921.757-10.221,6.057-12.114,4.921-1.893,10.221.757,12.114,6.057A305.542,305.542,0,0,1,611.6,312.632C611.6,478.058,476.837,612.821,311.411,612.821Z" transform="translate(-11.6 -13.2)" fill="#c1c1c1"/>
      </g>
    </g>
  </g>
</svg>
