<?xml version="1.0" encoding="utf-8"?>
<!-- Generator: Adobe Illustrator 26.0.2, SVG Export Plug-In . SVG Version: 6.00 Build 0)  -->
<svg version="1.1" id="Layer_1" xmlns="http://www.w3.org/2000/svg" xmlns:xlink="http://www.w3.org/1999/xlink" x="0px" y="0px"
	 viewBox="0 0 1439.481 1439.481" enable-background="new 0 0 1439.481 1439.481" xml:space="preserve">
<g>
	<g id="Layer_4">
		<circle fill="#4C4C4C" cx="719.74" cy="947.733" r="472.69"/>
	</g>
	<g id="Layer_1_00000070825027795009327310000012950290392375716004_">
		<path fill="#FFFFFF" d="M1159.302,966.304c0.483-20.395-15.542-36.995-30.711-50.641c-40.042-36.077-73.868-75.796-122.208-99.947
			c-35.233-17.616-64.2-45.085-93.418-70.949c-20.388-18.045-58.283-64.286-88.664-43.139c-13.046,9.081-19.532,24.88-23.717,40.208
			c-5.672,20.756-8.383,42.319-8.028,63.833c0.251,15.493,2.074,31.121-0.563,46.382c-7.465,43.273-94.526,8.946-121.198,6.235
			c-40.777-4.149-81.651-5.238-122.33-10.745c-11.491-1.56-95.45-2.753-128.792,0.11c-5.476,0.471-80.477-13.731-125.824,9.099
			c-23.264,11.712-9.588,60.614-10.476,76.34c-1.891,33.44-11.381,65.289,2.796,72.381c11.161,5.581,47.238-3.268,83.83-2.809
			c16.185,0.202,231.841,10.824,290.883,5.709c41.982-3.641,105.424-18.944,136.93,20.884c21.82,27.597,5.299,67.217-5.917,100.559
			c-11.216,33.342-7.245,82.484,27.462,88.223c17.653,2.919,34.303-8.059,48.823-18.498
			c84.087-60.419,168.174-120.831,252.26-181.25C1138.688,1005.19,1158.776,988.785,1159.302,966.304"/>
	</g>
</g>
<g id="Layer_18">
</g>
<g id="Layer_3">
</g>
<g>
	<text transform="matrix(1 0 0 1 530.6062 173.0142)" fill="#4C4C4C" font-family="'Georgia-Italic'" font-size="181.8875px">Next</text>
</g>
</svg>
