<svg xmlns="http://www.w3.org/2000/svg" xmlns:xlink="http://www.w3.org/1999/xlink" viewBox="0 0 2048 2048">
  <defs>
    <clipPath id="clip-PreviousIcon">
      <rect width="2048" height="2048"/>
    </clipPath>
  </defs>
  <g id="PreviousIcon" clip-path="url(#clip-PreviousIcon)">
    <g id="Icons_Fx_07_Go_Back_with_Text" data-name="Icons_Fx_07_Go Back with Text" transform="translate(305.088 221.827)">
      <g id="Layer_1_00000070825027795009327310000012950290392375716004_">
        <g id="Group_25" data-name="Group 25">
          <path id="Path_35" data-name="Path 35" d="M278.522,948.414c-.483,20.4,15.542,36.995,30.711,50.641,40.043,36.077,73.868,75.8,122.208,99.947,35.233,17.616,64.2,45.084,93.418,70.949,20.388,18.045,58.283,64.286,88.664,43.139,13.046-9.081,19.532-24.88,23.717-40.208a228.266,228.266,0,0,0,8.028-63.833c-.251-15.493-2.074-31.121.563-46.382,7.465-43.273,94.526-8.946,121.2-6.235,40.777,4.149,81.651,5.238,122.33,10.745,11.491,1.56,95.45,2.754,128.792-.11,5.477-.471,80.477,13.731,125.824-9.1,23.264-11.712,9.588-60.614,10.476-76.34,1.891-33.44,11.381-65.289-2.8-72.381-11.161-5.581-47.238,3.268-83.83,2.809-16.185-.2-231.841-10.824-290.883-5.709-41.982,3.641-105.424,18.944-136.93-20.884-21.82-27.6-5.3-67.217,5.917-100.559s7.245-82.484-27.462-88.223c-17.653-2.919-34.3,8.059-48.823,18.5q-126.131,90.629-252.26,181.25c-18.247,13.1-38.336,29.5-38.862,51.985" fill="#4c4c4c"/>
        </g>
      </g>
      <g id="Group_26" data-name="Group 26">
        <text id="Go_Back" data-name="Go Back" transform="translate(382.868 394.173)" fill="#4c4c4c" font-size="181.887" font-family="Georgia-Italic, Georgia" font-style="italic"><tspan x="0" y="0">Go Back</tspan></text>
      </g>
    </g>
  </g>
</svg>
