<svg xmlns="http://www.w3.org/2000/svg" xmlns:xlink="http://www.w3.org/1999/xlink" viewBox="0 0 2048 2048">
  <defs>
    <clipPath id="clip-PreviousIcon">
      <rect width="2048" height="2048"/>
    </clipPath>
  </defs>
  <g id="PreviousIcon" clip-path="url(#clip-PreviousIcon)">
    <g id="Layer_1_00000070825027795009327310000012950290392375716004_" transform="translate(378.689 752.217)">
      <g id="Group_24" data-name="Group 24" transform="translate(105.17 144.783)">
        <path id="Path_34" data-name="Path 34" d="M105.182,420.671c-.528,22.31,17,40.468,33.594,55.4,43.8,39.464,80.8,82.911,133.681,109.33C311,604.665,342.683,634.712,374.644,663c22.3,19.739,63.754,70.321,96.987,47.189C485.9,700.26,493,682.978,497.575,666.211a249.7,249.7,0,0,0,8.782-69.825c-.275-16.947-2.269-34.043.616-50.736,8.166-47.335,103.4-9.786,132.576-6.82,44.6,4.539,89.316,5.73,133.814,11.754,12.57,1.706,104.411,3.013,140.883-.12,5.991-.515,88.032,15.02,137.636-9.953,25.448-12.811,10.488-66.3,11.459-83.507,2.068-36.579,12.449-71.418-3.058-79.176-12.209-6.1-51.673,3.575-91.7,3.073-17.7-.221-253.606-11.84-318.19-6.245-45.923,3.983-115.321,20.722-149.785-22.845-23.868-30.188-5.8-73.527,6.472-110s7.925-90.227-30.04-96.505c-19.31-3.193-37.523,8.816-53.406,20.235Q285.662,264.677,147.692,363.806c-19.96,14.329-41.935,32.274-42.51,56.865" transform="translate(-105.17 -144.783)" fill="#4c4c4c"/>
      </g>
    </g>
  </g>
</svg>
