<svg xmlns="http://www.w3.org/2000/svg" xmlns:xlink="http://www.w3.org/1999/xlink" viewBox="0 0 2048 2048">
  <defs>
    <clipPath id="clip-Artboard_4_3">
      <rect width="2048" height="2048"/>
    </clipPath>
  </defs>
  <g id="Artboard_4_3" data-name="Artboard 4 – 3" clip-path="url(#clip-Artboard_4_3)">
    <g id="Murmuration_29e_Submit_Icon-2" data-name="Murmuration_29e_Submit Icon-2" transform="translate(160 212.793)">
      <g id="Group_1" data-name="Group 1">
        <text id="Submit_" data-name="Submit!" transform="translate(541.93 173.014)" fill="#4c4c4c" font-size="181.887" font-family="Georgia-Italic, Georgia" font-style="italic"><tspan x="0" y="0">Save!</tspan></text>
      </g>
      <circle id="Ellipse_6" data-name="Ellipse 6" cx="472.7" cy="472.7" r="472.7" transform="translate(391.3 475)" fill="#633fda"/>
      <path id="Path_12" data-name="Path 12" d="M676.4,1251.3c200.2-120.9,424.3-325.2,609.4-473.1q-43.95-45.9-88-91.8c-5.1-5.3-11-11-18.4-11.3-6.6-.3-12.4,3.9-17.6,8-150,117-294.3,291.9-460.4,384.7-8.6,4.8-18.4,9.6-28,7.3-8.7-2.1-15.1-9.4-20.8-16.4-25.3-31-41-68.9-66-100.3-12.4-15.6-22.3-23.5-31.8-25.7-16.7-4-32,9.6-56.6,29.4-21.1,17-44.8,30.1-65.9,47,61.7,59.1,137.1,171.8,198.9,230.9,7,6.7,14.8,13.8,24.4,15.1,7,.9,14.7-.1,20.8-3.8" fill="#f6f6f6"/>
    </g>
  </g>
</svg>
