
<!-- Generator: Adobe Illustrator 26.0.2, SVG Export Plug-In . SVG Version: 6.00 Build 0)  -->
<svg version="1.1" id="Layer_1" xmlns="http://www.w3.org/2000/svg" xmlns:xlink="http://www.w3.org/1999/xlink" x="0px" y="0px"
	 viewBox="0 0 1439.5 1439.5" style="enable-background:new 0 0 1439.5 1439.5;" xml:space="preserve">
<style type="text/css">
	.st0{fill:#4C4C4C;}
	.st1{font-family:'Georgia-Italic';}
	.st2{font-size:181.8875px;}
	.st3{fill:#633FDA;}
	.st4{fill:#F6F6F6;}
</style>
<g id="Layer_18">
</g>
<g id="Layer_3">
</g>
<g>
	<text transform="matrix(1 0 0 1 541.9297 173.0142)" class="st0 st1 st2">Submit!</text>
</g>
<circle class="st3" cx="864" cy="947.7" r="472.7"/>
<path class="st4" d="M676.4,1251.3c200.2-120.9,424.3-325.2,609.4-473.1c-29.3-30.6-58.6-61.2-88-91.8c-5.1-5.3-11-11-18.4-11.3
	c-6.6-0.3-12.4,3.9-17.6,8c-150,117-294.3,291.9-460.4,384.7c-8.6,4.8-18.4,9.6-28,7.3c-8.7-2.1-15.1-9.4-20.8-16.4
	c-25.3-31-41-68.9-66-100.3c-12.4-15.6-22.3-23.5-31.8-25.7c-16.7-4-32,9.6-56.6,29.4c-21.1,17-44.8,30.1-65.9,47
	c61.7,59.1,137.1,171.8,198.9,230.9c7,6.7,14.8,13.8,24.4,15.1C662.6,1256,670.3,1255,676.4,1251.3"/>
</svg>
