<?xml version="1.0" encoding="utf-8"?>
<!-- Generator: Adobe Illustrator 26.0.2, SVG Export Plug-In . SVG Version: 6.00 Build 0)  -->
<svg version="1.1" xmlns="http://www.w3.org/2000/svg" xmlns:xlink="http://www.w3.org/1999/xlink" x="0px" y="0px"
	 viewBox="0 0 1439.481 1439.481" enable-background="new 0 0 1439.481 1439.481" xml:space="preserve">
<g id="Layer_18">
</g>
<g id="Layer_3">
</g>
<g id="Layer_2">
	<g>
		<g>
			<text transform="matrix(1 0 0 1 103.1349 173.0141)" fill="#4C4C4C" font-family="'Georgia-Italic'" font-size="181.8875px">Submit here!</text>
		</g>
		<circle fill="#633FDA" cx="864.384" cy="947.733" r="472.69"/>
		<path fill="#F6F6F6" d="M676.361,1251.302c200.179-120.923,424.258-325.249,609.363-473.148
			c-29.32-30.59-58.64-61.18-87.959-91.774c-5.109-5.326-10.996-11.022-18.375-11.307c-6.593-0.251-12.441,3.937-17.646,8.001
			C1011.765,800.112,867.442,975,701.362,1067.777c-8.637,4.83-18.418,9.558-28.047,7.273c-8.745-2.068-15.097-9.398-20.777-16.353
			c-25.337-31.048-41.041-68.925-65.98-100.348c-12.362-15.577-22.29-23.457-31.756-25.703c-16.712-3.966-31.961,9.63-56.565,29.438
			c-21.078,16.975-44.837,30.094-65.915,47.001c61.732,59.141,137.122,171.77,198.856,230.906
			c7.034,6.743,14.757,13.823,24.416,15.119C662.64,1256.049,670.276,1254.979,676.361,1251.302"/>
	</g>
</g>
</svg>
